<svg width="25" height="24" viewBox="0 0 25 24" fill="none" xmlns="http://www.w3.org/2000/svg">
<path d="M5.59598 24H0.412946V7.97643H5.59598V24ZM3.00167 5.79066C1.34431 5.79066 0 4.47278 0 2.88167C1.18627e-08 2.1174 0.316247 1.38444 0.87917 0.844022C1.44209 0.303604 2.20558 0 3.00167 0C3.79777 0 4.56125 0.303604 5.12418 0.844022C5.6871 1.38444 6.00335 2.1174 6.00335 2.88167C6.00335 4.47278 4.65848 5.79066 3.00167 5.79066ZM24.9944 24H19.8225V16.1998C19.8225 14.3409 19.7835 11.9569 17.1278 11.9569C14.433 11.9569 14.0201 13.9766 14.0201 16.0659V24H8.84263V7.97643H13.8136V10.1622H13.8862C14.5781 8.90323 16.2684 7.57463 18.7902 7.57463C24.0357 7.57463 25 10.8908 25 15.198V24H24.9944Z" fill="#C415FE"/>
</svg>
